<?xml version="1.0" standalone="no"?>
<!DOCTYPE svg PUBLIC "-//W3C//DTD SVG 20010904//EN"
 "http://www.w3.org/TR/2001/REC-SVG-20010904/DTD/svg10.dtd">
<svg version="1.0" xmlns="http://www.w3.org/2000/svg"
 width="1024.000000pt" height="1024.000000pt" viewBox="0 0 1024.000000 1024.000000"
 preserveAspectRatio="xMidYMid meet">
<metadata>
Created by potrace 1.14, written by Peter Selinger 2001-2017
</metadata>
<g transform="translate(0.000000,1024.000000) scale(0.100000,-0.100000)"
fill="#000000" stroke="none">
<path d="M0 7269 l0 -2971 28 7 c23 5 928 248 2092 560 151 41 471 126 710
190 239 63 444 119 455 124 13 6 348 574 930 1579 501 864 913 1571 916 1572
3 0 16 -19 29 -42 13 -24 218 -380 455 -793 237 -412 748 -1301 1136 -1975
387 -674 1001 -1742 1365 -2375 364 -632 661 -1151 660 -1151 -5 -6 -7296 12
-7301 18 -4 4 2 22 13 40 10 18 94 161 184 318 91 157 427 737 747 1289 320
551 580 1005 577 1008 -4 4 -331 -83 -1896 -502 -212 -57 -522 -140 -690 -185
-168 -44 -329 -88 -358 -96 l-52 -15 0 -1934 0 -1935 5120 0 5120 0 0 5120 0
5120 -5120 0 -5120 0 0 -2971z"/>
<path d="M4414 6462 c-391 -675 -708 -1228 -703 -1230 4 -2 304 76 666 172
623 166 1121 296 1189 310 16 4 41 2 55 -4 22 -10 22 -10 1 -6 -12 2 -19 0
-16 -6 3 -5 18 -7 33 -3 15 3 103 -1 196 -9 94 -8 224 -18 290 -22 66 -3 128
-11 139 -16 14 -7 17 -7 11 2 -4 7 -3 15 2 19 12 7 -14 55 -402 731 -166 289
-400 697 -521 907 -120 211 -221 383 -224 383 -3 0 -325 -553 -716 -1228z"/>
<path d="M3379 4677 c-34 -59 -404 -697 -1064 -1835 -163 -282 -296 -515 -294
-517 5 -4 6199 -12 6199 -7 0 4 -332 583 -758 1322 -606 1050 -597 1036 -621
1063 -15 17 -16 17 -28 1 -7 -10 -13 -13 -13 -8 0 11 -7 11 -265 0 -428 -19
-963 -80 -1310 -151 -126 -26 -150 -36 -140 -62 3 -8 -6 -13 -23 -14 -24 -1
-24 -2 8 -10 19 -5 46 -6 60 -4 18 4 21 3 11 -4 -12 -7 -11 -10 5 -14 10 -2
-1 -2 -25 0 -45 4 -119 16 -351 58 -74 13 -403 72 -730 130 -327 58 -602 108
-610 110 -10 3 -27 -16 -51 -58z"/>
</g>
</svg>
